<?xml version="1.0" encoding="UTF-8"?><svg id="Layer_1" xmlns="http://www.w3.org/2000/svg" viewBox="0 0 42.49 55.49"><defs><style>.cls-1{fill:#9c446c;}.cls-1,.cls-2,.cls-3{stroke-width:0px;}.cls-2{fill:#f26230;}.cls-3{fill:#519bd4;}</style></defs><path class="cls-3" d="M21.25,25.68s.7-1.25,2.09-.59l2.57,1.39-9.86,17s-1.16,1.61-2.54.43S-1.11,33.85,1.97,16.99C5.05.13,25.1-.6,30.96,1.38l-3.48,5.86S6.88,2.63,6.3,20.73c-.28,8.59,8.72,15.61,8.72,15.61l6.23-10.66Z"/><path class="cls-2" d="M11.2,26.43s-1.68-6.1-1.13-7.2l4.81-7.56s.66-1.1,1.54-.91,3.19,1.1,3.19,1.1c0,0,.41.49-.38,1.76s-8.03,12.81-8.03,12.81Z"/><path class="cls-1" d="M17.83,29.42s-.7,1.25-2.09.59l-2.57-1.39,9.86-17s1.16-1.61,2.54-.43,14.61,10.07,11.54,26.93c-3.08,16.86-23.13,17.59-28.99,15.61l3.48-5.86s20.6,4.62,21.18-13.49c.28-8.59-8.72-15.61-8.72-15.61l-6.23,10.66Z"/></svg>