<svg xmlns="http://www.w3.org/2000/svg" viewBox="0 0 205.55 34.62"><path d="M9.27,17.35a.54.54,0,0,1,.74-.21l.92.5L7.41,23.7s-.42.58-.91.16-5.21-3.6-4.11-9.61S10.64,8,12.73,8.68l-1.24,2.09S4.14,9.12,3.93,15.58C3.83,18.65,7,21.15,7,21.15Z" style="fill:#519bd4"/><path d="M5.68,17.62a8.71,8.71,0,0,1-.4-2.57L7,12.35s.23-.39.55-.32,1.13.39,1.13.39.15.18-.13.63S5.68,17.62,5.68,17.62Z" style="fill:#f26230"/><path d="M8.05,18.68a.55.55,0,0,1-.75.21l-.91-.49L9.9,12.33s.42-.58.91-.16,5.21,3.6,4.12,9.61S6.68,28.06,4.58,27.35l1.25-2.09s7.34,1.65,7.55-4.81c.1-3.07-3.11-5.57-3.11-5.57Z" style="fill:#9c446c"/><path d="M20.73,23.83A4,4,0,0,1,19,22.46a3.62,3.62,0,0,1-.67-2.12h2.86a1.86,1.86,0,0,0,.58,1.3,2.05,2.05,0,0,0,1.44.48,2.19,2.19,0,0,0,1.47-.45,1.45,1.45,0,0,0,.54-1.17,1.38,1.38,0,0,0-.36-1,2.77,2.77,0,0,0-.91-.6,14.33,14.33,0,0,0-1.5-.48,16.77,16.77,0,0,1-2.11-.76,3.73,3.73,0,0,1-1.39-1.12,3.23,3.23,0,0,1-.58-2,3.66,3.66,0,0,1,.59-2.06,3.76,3.76,0,0,1,1.66-1.34A6.07,6.07,0,0,1,23,10.67a5.28,5.28,0,0,1,3.35,1,3.72,3.72,0,0,1,1.42,2.8H24.86a1.52,1.52,0,0,0-.58-1.14,2.18,2.18,0,0,0-1.44-.45,1.89,1.89,0,0,0-1.25.4,1.47,1.47,0,0,0-.47,1.17,1.21,1.21,0,0,0,.36.89,2.74,2.74,0,0,0,.87.57c.35.14.85.31,1.48.5a15.39,15.39,0,0,1,2.12.77,3.68,3.68,0,0,1,1.41,1.14,3.15,3.15,0,0,1,.59,2,3.75,3.75,0,0,1-.55,2,4,4,0,0,1-1.62,1.46,5.57,5.57,0,0,1-2.54.54A6.31,6.31,0,0,1,20.73,23.83Z" style="fill:#519bd4"/><path d="M32.21,23.67a4.79,4.79,0,0,1-1.92-1.92,5.77,5.77,0,0,1-.7-2.86A5.6,5.6,0,0,1,30.31,16a5.14,5.14,0,0,1,1.95-1.92,6.06,6.06,0,0,1,5.54,0,5.07,5.07,0,0,1,2,1.92,5.6,5.6,0,0,1,.72,2.86,5.49,5.49,0,0,1-.74,2.86,5.07,5.07,0,0,1-2,1.92,5.8,5.8,0,0,1-2.8.68A5.57,5.57,0,0,1,32.21,23.67Zm4.11-2a2.67,2.67,0,0,0,1-1.06,3.61,3.61,0,0,0,.38-1.72,3.16,3.16,0,0,0-.79-2.31A2.61,2.61,0,0,0,35,15.76a2.53,2.53,0,0,0-1.91.82,3.2,3.2,0,0,0-.78,2.31,3.24,3.24,0,0,0,.76,2.32A2.47,2.47,0,0,0,35,22,2.85,2.85,0,0,0,36.32,21.67Z" style="fill:#519bd4"/><path d="M58.69,14.65A4.47,4.47,0,0,1,59.89,18v6.2H57.22V18.34a2.64,2.64,0,0,0-.63-1.9,2.28,2.28,0,0,0-1.72-.66,2.31,2.31,0,0,0-1.73.66,2.64,2.64,0,0,0-.64,1.9v5.84H49.83V18.34a2.64,2.64,0,0,0-.63-1.9,2.25,2.25,0,0,0-1.71-.66,2.33,2.33,0,0,0-1.75.66,2.64,2.64,0,0,0-.64,1.9v5.84H42.43V13.61H45.1v1.28a3.54,3.54,0,0,1,1.33-1.05,4,4,0,0,1,1.78-.38,4.54,4.54,0,0,1,2.21.52,3.64,3.64,0,0,1,1.51,1.5A3.86,3.86,0,0,1,53.43,14a4.59,4.59,0,0,1,5.26.64Z" style="fill:#519bd4"/><path d="M71.33,14.65A4.54,4.54,0,0,1,72.5,18v6.2H69.83V18.34a2.75,2.75,0,0,0-.63-1.94,2.24,2.24,0,0,0-1.72-.67,2.3,2.3,0,0,0-1.75.67,2.75,2.75,0,0,0-.64,1.94v5.84H62.42V13.61h2.67v1.32a3.74,3.74,0,0,1,1.37-1.08,4.22,4.22,0,0,1,1.82-.39A4,4,0,0,1,71.33,14.65Z" style="fill:#519bd4"/><path d="M75,16a4.72,4.72,0,0,1,1.73-1.91,4.66,4.66,0,0,1,2.45-.66,4.39,4.39,0,0,1,2.07.47,4.12,4.12,0,0,1,1.42,1.21V13.61h2.69V24.18H82.66V22.63a3.81,3.81,0,0,1-1.42,1.23,4.27,4.27,0,0,1-2.09.49,4.47,4.47,0,0,1-2.43-.69A4.77,4.77,0,0,1,75,21.73a6.2,6.2,0,0,1-.64-2.88A6.09,6.09,0,0,1,75,16Zm7.29,1.21a2.63,2.63,0,0,0-1-1.06,2.71,2.71,0,0,0-1.39-.38,2.61,2.61,0,0,0-1.37.37,2.67,2.67,0,0,0-1,1.06,3.29,3.29,0,0,0-.4,1.64,3.41,3.41,0,0,0,.4,1.67,2.74,2.74,0,0,0,1,1.1,2.54,2.54,0,0,0,1.36.38,2.71,2.71,0,0,0,1.39-.37,2.66,2.66,0,0,0,1-1.07,3.35,3.35,0,0,0,.38-1.67A3.38,3.38,0,0,0,82.28,17.22Z" style="fill:#519bd4"/><path d="M91.08,15.8v5.12a1,1,0,0,0,.25.77,1.27,1.27,0,0,0,.87.24h1.24v2.25H91.76c-2.25,0-3.37-1.1-3.37-3.28V15.8H87.13V13.61h1.26V11h2.69v2.61h2.36V15.8Z" style="fill:#519bd4"/><path d="M103.46,14a3.65,3.65,0,0,1,1.46,1.55,5.28,5.28,0,0,1,.52,2.45v6.2h-2.67V18.34a2.75,2.75,0,0,0-.63-1.94,2.23,2.23,0,0,0-1.72-.67,2.28,2.28,0,0,0-1.74.67A2.7,2.7,0,0,0,98,18.34v5.84H95.37V10.06H98v4.87a3.44,3.44,0,0,1,1.37-1.08,4.56,4.56,0,0,1,1.91-.39A4.32,4.32,0,0,1,103.46,14Z" style="fill:#519bd4"/><path d="M115.86,14.11a3.52,3.52,0,0,1,1.42,1.39,4.08,4.08,0,0,1,.48,2,5.14,5.14,0,0,1-.07.92c-.08.38-.15.72-.23,1h-8.64a4.18,4.18,0,0,0-.06.68,2.9,2.9,0,0,0,.89,2.27,3.21,3.21,0,0,0,2.26.8,4.23,4.23,0,0,0,2.31-.63,3.67,3.67,0,0,0,1.45-1.69h1.43a5.7,5.7,0,0,1-5.38,3.45,4.31,4.31,0,0,1-3.12-1.12,4,4,0,0,1-1.18-3,6.42,6.42,0,0,1,.12-1.2,6.84,6.84,0,0,1,1.15-2.84,5.83,5.83,0,0,1,2.15-1.87,6,6,0,0,1,2.77-.65A4.79,4.79,0,0,1,115.86,14.11Zm.55,3.45a2.57,2.57,0,0,0-.86-2.08,3.29,3.29,0,0,0-2.19-.73,4.35,4.35,0,0,0-3.44,1.68,4.79,4.79,0,0,0-.91,2h7.3A4.63,4.63,0,0,0,116.41,17.56Z" style="fill:#9c446c"/><path d="M128.44,14.44a3.24,3.24,0,0,1,1,2.53,6.2,6.2,0,0,1-.09,1.1l-1.09,6.11H126.9l1-5.95a5.67,5.67,0,0,0,.08-.94,2.51,2.51,0,0,0-.69-1.91,2.71,2.71,0,0,0-1.93-.65,3.71,3.71,0,0,0-2.57,1,4.67,4.67,0,0,0-1.39,2.8v0l-1,5.74H119.1l1.83-10.42h1.34l-.33,1.79a4.52,4.52,0,0,1,1.7-1.46,4.85,4.85,0,0,1,2.23-.52A3.7,3.7,0,0,1,128.44,14.44Z" style="fill:#9c446c"/><path d="M133.39,21.35a3.57,3.57,0,0,0-.06.6,1,1,0,0,0,.33.84,2,2,0,0,0,1.1.24H136l-.21,1.15h-1.43a2.88,2.88,0,0,1-1.77-.46,1.78,1.78,0,0,1-.59-1.51,5.15,5.15,0,0,1,.07-.86l1.15-6.46h-1.45l.21-1.13h1.45l.45-2.61h1.34l-.46,2.61h2.88l-.21,1.13h-2.88Z" style="fill:#9c446c"/><path d="M146.59,14.11A3.52,3.52,0,0,1,148,15.5a4.09,4.09,0,0,1,.49,2,5.08,5.08,0,0,1-.08.92c-.08.38-.15.72-.23,1h-8.64a4.18,4.18,0,0,0-.06.68,2.9,2.9,0,0,0,.89,2.27,3.21,3.21,0,0,0,2.26.8,4.21,4.21,0,0,0,2.31-.63,3.67,3.67,0,0,0,1.45-1.69h1.43a5.66,5.66,0,0,1-2.07,2.49,5.78,5.78,0,0,1-3.31,1,4.31,4.31,0,0,1-3.12-1.12,4,4,0,0,1-1.17-3,6.38,6.38,0,0,1,.11-1.2,7,7,0,0,1,1.15-2.84,5.83,5.83,0,0,1,2.15-1.87,6,6,0,0,1,2.77-.65A4.79,4.79,0,0,1,146.59,14.11Zm.55,3.45a2.57,2.57,0,0,0-.86-2.08,3.29,3.29,0,0,0-2.19-.73,4.36,4.36,0,0,0-1.87.42,4.27,4.27,0,0,0-1.56,1.26,4.69,4.69,0,0,0-.92,2h7.31A5.44,5.44,0,0,0,147.14,17.56Z" style="fill:#9c446c"/><path d="M154.28,14.16a4.57,4.57,0,0,1,2.34-.59L156.37,15H156a4,4,0,0,0-2.36.71A3.83,3.83,0,0,0,152.25,18l-1.08,6.18h-1.34l1.83-10.42H153l-.37,2.08A4.59,4.59,0,0,1,154.28,14.16Z" style="fill:#9c446c"/><path d="M161.36,14.31a5.23,5.23,0,0,1,2.68-.7,4.12,4.12,0,0,1,3,1.12,4.07,4.07,0,0,1,1.13,3,7.2,7.2,0,0,1-.11,1.18,7,7,0,0,1-1.15,2.82,5.86,5.86,0,0,1-2.11,1.89,5.52,5.52,0,0,1-2.68.67,4,4,0,0,1-2.42-.7,3.38,3.38,0,0,1-1.28-1.74l-1.26,7.21h-1.33l2.71-15.34h1.33l-.4,2.29A5,5,0,0,1,161.36,14.31ZM166.83,18a3.12,3.12,0,0,0-.89-2.36,3.26,3.26,0,0,0-2.34-.85,4.24,4.24,0,0,0-2,.52,4.74,4.74,0,0,0-1.66,1.47A5.39,5.39,0,0,0,159,19a5,5,0,0,0-.1,1,3.16,3.16,0,0,0,.9,2.37,3.21,3.21,0,0,0,2.33.88,4.4,4.4,0,0,0,2.07-.51,4.77,4.77,0,0,0,1.64-1.47,6.1,6.1,0,0,0,1-3.21Z" style="fill:#9c446c"/><path d="M174.06,14.16a4.57,4.57,0,0,1,2.34-.59L176.16,15h-.39a4,4,0,0,0-2.36.71A3.77,3.77,0,0,0,172,18L171,24.18h-1.34l1.83-10.42h1.34l-.36,2.08A4.56,4.56,0,0,1,174.06,14.16Z" style="fill:#9c446c"/><path d="M179.69,13.76l-1.84,10.42h-1.33l1.83-10.42Zm-.9-2.18a.78.78,0,0,1-.23-.58,1.1,1.1,0,0,1,.34-.83,1.13,1.13,0,0,1,.82-.34.84.84,0,0,1,.59.21.75.75,0,0,1,.21.55,1.15,1.15,0,0,1-.34.85,1.07,1.07,0,0,1-.8.36A.84.84,0,0,1,178.79,11.58Z" style="fill:#9c446c"/><path d="M182.35,16.14a5.93,5.93,0,0,1,2.12-1.87,5.8,5.8,0,0,1,2.73-.66,4.42,4.42,0,0,1,3,1,3.55,3.55,0,0,1,1.15,2.6h-1.43a2.37,2.37,0,0,0-.83-1.77,3.22,3.22,0,0,0-2.09-.64,4.16,4.16,0,0,0-2.85,1.1A5.25,5.25,0,0,0,182.57,19a5.12,5.12,0,0,0-.1,1.09,3.13,3.13,0,0,0,.83,2.33,3,3,0,0,0,2.2.81,4.25,4.25,0,0,0,2.33-.63,3.88,3.88,0,0,0,1.47-1.79h1.43a5.6,5.6,0,0,1-2.08,2.58,5.78,5.78,0,0,1-3.34,1,4.26,4.26,0,0,1-3.08-1.11,4,4,0,0,1-1.15-3,7.47,7.47,0,0,1,.11-1.22A6.76,6.76,0,0,1,182.35,16.14Z" style="fill:#9c446c"/><path d="M201.2,14.11a3.4,3.4,0,0,1,1.42,1.39,4,4,0,0,1,.49,2,5.08,5.08,0,0,1-.08.92c-.07.38-.15.72-.22,1h-8.65a5.59,5.59,0,0,0,0,.68A2.9,2.9,0,0,0,195,22.4a3.22,3.22,0,0,0,2.26.8,4.21,4.21,0,0,0,2.31-.63A3.62,3.62,0,0,0,201,20.88h1.43a5.66,5.66,0,0,1-2.07,2.49,5.75,5.75,0,0,1-3.31,1,4.34,4.34,0,0,1-3.12-1.12,4,4,0,0,1-1.17-3,6.42,6.42,0,0,1,.12-1.2A6.84,6.84,0,0,1,194,16.13a5.75,5.75,0,0,1,2.15-1.87,6,6,0,0,1,2.76-.65A4.73,4.73,0,0,1,201.2,14.11Zm.56,3.45a2.57,2.57,0,0,0-.86-2.08,3.32,3.32,0,0,0-2.2-.73,4.31,4.31,0,0,0-3.43,1.68,4.81,4.81,0,0,0-.92,2h7.31A5.6,5.6,0,0,0,201.76,17.56Z" style="fill:#9c446c"/></svg>