<?xml version="1.0" encoding="UTF-8"?><svg id="Layer_1" xmlns="http://www.w3.org/2000/svg" viewBox="0 0 205.55 34.62"><defs><style>.cls-1{fill:#9c446c;}.cls-1,.cls-2,.cls-3{stroke-width:0px;}.cls-2{fill:#f26230;}.cls-3{fill:#519bd4;}</style></defs><path class="cls-3" d="M9.27,17.35s.25-.44.75-.21l.92.5-3.52,6.07s-.42.58-.91.15-5.21-3.59-4.12-9.61,8.25-6.28,10.34-5.57l-1.24,2.09s-7.35-1.65-7.56,4.81c-.1,3.06,3.11,5.57,3.11,5.57l2.22-3.8Z"/><path class="cls-2" d="M5.68,17.62s-.6-2.18-.4-2.57l1.72-2.7s.24-.39.55-.32,1.14.39,1.14.39c0,0,.15.18-.14.63s-2.86,4.57-2.86,4.57Z"/><path class="cls-1" d="M8.05,18.68s-.25.44-.75.21l-.92-.5,3.52-6.07s.42-.58.91-.15,5.21,3.59,4.12,9.61c-1.1,6.01-8.25,6.28-10.34,5.57l1.24-2.09s7.35,1.65,7.56-4.81c.1-3.06-3.11-5.57-3.11-5.57l-2.22,3.8Z"/><path class="cls-3" d="M20.73,23.83c-.74-.32-1.33-.78-1.76-1.37-.43-.6-.66-1.3-.67-2.12h2.86c.04.55.23.98.58,1.3s.83.48,1.44.48,1.11-.15,1.47-.45.53-.69.53-1.17c0-.39-.12-.72-.36-.97-.24-.25-.54-.45-.91-.6s-.86-.31-1.5-.49c-.86-.25-1.57-.51-2.11-.75s-1-.62-1.39-1.13c-.39-.5-.58-1.17-.58-2.01,0-.79.2-1.48.59-2.06.39-.58.95-1.03,1.66-1.34.71-.31,1.53-.47,2.44-.47,1.37,0,2.49.33,3.35,1,.86.67,1.33,1.6,1.42,2.79h-2.94c-.03-.46-.22-.84-.58-1.13-.36-.3-.84-.45-1.44-.45-.52,0-.94.13-1.25.4-.31.27-.47.66-.47,1.16,0,.36.12.65.35.89s.53.43.88.57c.35.15.84.31,1.48.51.86.25,1.57.51,2.12.76.55.25,1.02.64,1.41,1.14.39.51.59,1.18.59,2,0,.71-.18,1.37-.55,1.98-.37.61-.91,1.1-1.62,1.46s-1.56.54-2.54.54c-.93,0-1.76-.16-2.51-.48Z"/><path class="cls-3" d="M32.21,23.67c-.81-.45-1.45-1.09-1.92-1.92-.46-.83-.7-1.78-.7-2.86s.24-2.03.72-2.86c.48-.83,1.13-1.47,1.96-1.92.83-.45,1.75-.68,2.77-.68s1.94.23,2.77.68c.83.45,1.48,1.09,1.96,1.92.48.83.72,1.78.72,2.86s-.24,2.04-.73,2.86c-.49.83-1.15,1.47-1.98,1.92s-1.76.68-2.79.68-1.93-.23-2.75-.68ZM36.32,21.67c.43-.24.77-.59,1.02-1.06.25-.47.38-1.04.38-1.72,0-1-.26-1.78-.79-2.32-.53-.54-1.17-.81-1.94-.81s-1.4.27-1.92.81c-.52.54-.77,1.31-.77,2.32s.25,1.78.75,2.32,1.14.81,1.9.81c.48,0,.94-.12,1.36-.35Z"/><path class="cls-3" d="M58.69,14.65c.79.79,1.19,1.9,1.19,3.33v6.2h-2.67v-5.84c0-.83-.21-1.46-.63-1.9-.42-.44-.99-.66-1.72-.66s-1.3.22-1.73.66c-.43.44-.64,1.07-.64,1.9v5.84h-2.67v-5.84c0-.83-.21-1.46-.63-1.9-.42-.44-.99-.66-1.72-.66s-1.32.22-1.75.66c-.43.44-.64,1.07-.64,1.9v5.84h-2.67v-10.57h2.67v1.28c.34-.45.79-.79,1.33-1.05.54-.25,1.13-.38,1.78-.38.83,0,1.56.17,2.21.52.65.35,1.15.85,1.51,1.5.34-.61.84-1.1,1.5-1.47.65-.37,1.36-.55,2.13-.55,1.3,0,2.34.4,3.14,1.19Z"/><path class="cls-3" d="M71.33,14.65c.78.79,1.16,1.9,1.16,3.33v6.2h-2.67v-5.84c0-.84-.21-1.48-.63-1.94-.42-.45-.99-.68-1.72-.68s-1.32.23-1.75.68c-.43.45-.64,1.1-.64,1.94v5.84h-2.67v-10.57h2.67v1.32c.36-.46.81-.82,1.36-1.08.55-.26,1.16-.39,1.82-.39,1.26,0,2.28.4,3.05,1.19Z"/><path class="cls-3" d="M74.99,16.01c.43-.83,1-1.46,1.74-1.91s1.55-.67,2.45-.67c.79,0,1.48.16,2.07.48.59.32,1.07.72,1.42,1.2v-1.51h2.69v10.57h-2.69v-1.55c-.34.5-.82.91-1.42,1.23-.6.32-1.3.49-2.09.49-.89,0-1.7-.23-2.43-.69-.73-.46-1.31-1.1-1.74-1.94-.43-.83-.64-1.79-.64-2.87s.21-2.02.64-2.84ZM82.28,17.22c-.25-.46-.6-.82-1.03-1.07-.43-.25-.9-.37-1.39-.37s-.95.12-1.37.36c-.42.24-.76.59-1.02,1.06-.26.46-.39,1.01-.39,1.65s.13,1.19.39,1.67c.26.48.6.84,1.03,1.1.43.25.88.38,1.36.38s.96-.12,1.39-.37c.43-.25.78-.6,1.03-1.07.25-.46.38-1.02.38-1.67s-.13-1.2-.38-1.67Z"/><path class="cls-3" d="M91.08,15.8v5.11c0,.36.09.61.26.77.17.16.46.24.87.24h1.24v2.25h-1.68c-2.25,0-3.38-1.09-3.38-3.28v-5.09h-1.26v-2.19h1.26v-2.61h2.69v2.61h2.37v2.19h-2.37Z"/><path class="cls-3" d="M103.46,13.98c.62.35,1.11.86,1.46,1.54.35.68.52,1.5.52,2.45v6.2h-2.67v-5.84c0-.84-.21-1.48-.63-1.94-.42-.45-.99-.68-1.72-.68s-1.32.23-1.75.68c-.43.45-.64,1.1-.64,1.94v5.84h-2.67v-14.12h2.67v4.86c.34-.46.8-.82,1.37-1.08.57-.26,1.21-.39,1.91-.39.8,0,1.51.17,2.14.52Z"/><path class="cls-1" d="M115.86,14.11c.62.34,1.1.8,1.42,1.38.32.58.49,1.25.49,2,0,.34-.03.65-.08.92-.08.38-.15.73-.23,1.03h-8.64c-.04.24-.06.47-.06.69,0,.98.3,1.74.89,2.27s1.35.8,2.26.8,1.65-.21,2.31-.63c.66-.42,1.14-.99,1.45-1.7h1.43c-.43,1.02-1.12,1.85-2.07,2.49s-2.05.96-3.31.96-2.34-.37-3.12-1.12c-.78-.74-1.17-1.76-1.17-3.04,0-.38.04-.78.11-1.2.19-1.08.58-2.03,1.15-2.84.58-.81,1.29-1.44,2.15-1.87.85-.43,1.77-.65,2.77-.65.88,0,1.63.17,2.25.51ZM116.41,17.56c0-.9-.29-1.6-.86-2.08s-1.3-.73-2.19-.73c-.65,0-1.27.14-1.87.42s-1.12.7-1.56,1.26c-.45.56-.75,1.23-.92,2.02h7.31c.06-.36.1-.65.1-.9Z"/><path class="cls-1" d="M128.44,14.44c.64.58.96,1.42.96,2.53,0,.41-.03.78-.1,1.11l-1.09,6.1h-1.32l1.05-5.95c.05-.29.08-.6.08-.94,0-.84-.23-1.48-.69-1.91-.46-.43-1.1-.65-1.93-.65-1,0-1.86.32-2.58.95-.71.64-1.18,1.57-1.39,2.8v-.06l-1.01,5.74h-1.34l1.83-10.42h1.33l-.32,1.79c.45-.64,1.01-1.13,1.7-1.47.69-.34,1.43-.52,2.23-.52,1.07,0,1.92.29,2.57.87Z"/><path class="cls-1" d="M133.39,21.35c-.04.23-.06.43-.06.59,0,.41.11.69.33.85s.59.24,1.1.24h1.22l-.21,1.14h-1.43c-.79,0-1.38-.15-1.77-.46-.39-.31-.59-.81-.59-1.51,0-.28.03-.57.08-.86l1.14-6.47h-1.45l.21-1.13h1.45l.46-2.61h1.33l-.46,2.61h2.88l-.21,1.13h-2.88l-1.14,6.47Z"/><path class="cls-1" d="M146.59,14.11c.62.34,1.1.8,1.42,1.38.32.58.49,1.25.49,2,0,.34-.03.65-.08.92-.08.38-.15.73-.23,1.03h-8.64c-.04.24-.06.47-.06.69,0,.98.3,1.74.89,2.27s1.35.8,2.26.8,1.65-.21,2.31-.63c.66-.42,1.14-.99,1.45-1.7h1.43c-.43,1.02-1.12,1.85-2.07,2.49s-2.05.96-3.31.96-2.34-.37-3.12-1.12c-.78-.74-1.17-1.76-1.17-3.04,0-.38.04-.78.11-1.2.19-1.08.58-2.03,1.15-2.84.58-.81,1.29-1.44,2.15-1.87.85-.43,1.77-.65,2.77-.65.88,0,1.63.17,2.25.51ZM147.14,17.56c0-.9-.29-1.6-.86-2.08s-1.3-.73-2.19-.73c-.65,0-1.27.14-1.87.42s-1.12.7-1.56,1.26c-.45.56-.75,1.23-.92,2.02h7.31c.06-.36.1-.65.1-.9Z"/><path class="cls-1" d="M154.28,14.16c.67-.39,1.46-.59,2.35-.59l-.25,1.39h-.38c-.92,0-1.7.24-2.37.71-.66.47-1.12,1.25-1.37,2.33l-1.09,6.18h-1.34l1.83-10.42h1.33l-.36,2.08c.42-.72.97-1.28,1.64-1.68Z"/><path class="cls-1" d="M161.36,14.31c.81-.46,1.7-.7,2.68-.7,1.26,0,2.27.37,3.02,1.12.76.74,1.13,1.76,1.13,3.04,0,.37-.04.76-.11,1.18-.19,1.07-.57,2.01-1.14,2.82-.57.81-1.28,1.44-2.11,1.89-.83.45-1.73.67-2.68.67s-1.79-.23-2.42-.7c-.64-.46-1.06-1.05-1.28-1.75l-1.26,7.21h-1.34l2.71-15.34h1.33l-.4,2.29c.43-.7,1.05-1.28,1.86-1.75ZM166.83,17.98c0-1-.3-1.79-.89-2.36-.59-.57-1.37-.85-2.34-.85-.71,0-1.39.17-2.04.52-.65.34-1.2.83-1.66,1.47-.46.64-.76,1.37-.92,2.21-.06.36-.1.67-.1.95,0,.99.3,1.78.9,2.37.6.59,1.37.88,2.33.88.74,0,1.43-.17,2.07-.51s1.19-.83,1.64-1.47c.45-.64.75-1.39.91-2.24.06-.38.1-.71.1-.97Z"/><path class="cls-1" d="M174.06,14.16c.67-.39,1.46-.59,2.35-.59l-.25,1.39h-.38c-.92,0-1.7.24-2.37.71-.66.47-1.12,1.25-1.37,2.33l-1.09,6.18h-1.34l1.83-10.42h1.33l-.36,2.08c.42-.72.97-1.28,1.64-1.68Z"/><path class="cls-1" d="M179.68,13.76l-1.83,10.42h-1.34l1.83-10.42h1.33ZM178.79,11.58c-.15-.15-.23-.34-.23-.58,0-.33.11-.61.34-.83.23-.22.5-.33.82-.33.24,0,.44.07.58.21.15.14.22.32.22.55,0,.33-.11.61-.34.85s-.5.35-.8.35c-.24,0-.44-.07-.59-.22Z"/><path class="cls-1" d="M181.78,23.6c-.66-.49-.99-1.16-.99-2.01,0-.15,0-.27.02-.34h1.3c-.05.61.13,1.1.53,1.47s1,.55,1.79.55,1.44-.17,1.93-.51c.48-.34.72-.79.72-1.34,0-.33-.1-.61-.31-.84s-.45-.42-.75-.56c-.3-.15-.72-.31-1.25-.51-.66-.24-1.19-.47-1.59-.68-.4-.21-.74-.5-1.03-.88-.29-.38-.43-.85-.43-1.42s.17-1.08.5-1.53c.33-.44.79-.79,1.36-1.03.58-.24,1.24-.36,1.97-.36,1.03,0,1.87.25,2.53.76.66.51.98,1.18.98,2.02,0,.18,0,.31-.02.4h-1.26c.01-.05.02-.13.02-.25,0-.56-.22-1.01-.66-1.35s-1-.52-1.69-.52-1.26.16-1.71.49c-.45.32-.68.76-.68,1.31,0,.37.11.68.32.93s.48.45.8.6c.32.15.74.33,1.28.53.64.24,1.15.46,1.54.67.39.2.72.48.98.84.27.36.4.8.4,1.34,0,.9-.38,1.62-1.13,2.16-.75.53-1.72.8-2.92.8-1.06,0-1.91-.25-2.58-.73Z"/><path class="cls-1" d="M199.24,14.11c.62.34,1.1.8,1.42,1.38.32.58.49,1.25.49,2,0,.34-.03.65-.08.92-.08.38-.15.73-.23,1.03h-8.64c-.04.24-.06.47-.06.69,0,.98.3,1.74.89,2.27s1.35.8,2.26.8,1.65-.21,2.31-.63c.66-.42,1.14-.99,1.45-1.7h1.43c-.43,1.02-1.12,1.85-2.07,2.49s-2.05.96-3.31.96-2.34-.37-3.12-1.12c-.78-.74-1.17-1.76-1.17-3.04,0-.38.04-.78.11-1.2.19-1.08.58-2.03,1.15-2.84.58-.81,1.29-1.44,2.15-1.87.85-.43,1.77-.65,2.77-.65.88,0,1.63.17,2.25.51ZM199.79,17.56c0-.9-.29-1.6-.86-2.08s-1.3-.73-2.19-.73c-.65,0-1.27.14-1.87.42s-1.12.7-1.56,1.26c-.45.56-.75,1.23-.92,2.02h7.31c.06-.36.1-.65.1-.9Z"/></svg>